<svg xmlns="http://www.w3.org/2000/svg" viewBox="0 0 512 512">
  <defs>
    <linearGradient id="bg" x1="0" y1="0" x2="1" y2="1">
      <stop offset="0" stop-color="#8b6cff"/>
      <stop offset="1" stop-color="#4a2bd6"/>
    </linearGradient>
  </defs>
  <rect width="512" height="512" fill="url(#bg)"/>
  <g transform="translate(256 256) scale(0.72) translate(-262 -258)">
    <path fill="#fff" d="M236 96c10 92 52 134 144 144-92 10-134 52-144 144-10-92-52-134-144-144 92-10 134-52 144-144z"/>
    <path fill="#ffd66b" d="M372 300c5 38 22 55 60 60-38 5-55 22-60 60-5-38-22-55-60-60 38-5 55-22 60-60z"/>
  </g>
</svg>
